<svg width="33" height="28" viewBox="0 0 33 28" fill="none" xmlns="http://www.w3.org/2000/svg">
<g clip-path="url(#clip0_201_83332)">
<path d="M5.77734 2.73438C3.16406 2.73438 1.06641 4.85546 1.06641 7.49218C1.06641 10.1172 3.16406 12.2266 5.77734 12.2266C7.96875 12.2266 8.32031 11.3125 9.29297 11.3125C9.51562 11.3125 9.67969 11.3594 9.97266 11.5L11.8008 12.4727C12.7148 12.9414 12.9961 13.2461 13.1602 13.8555L13.3945 14.7109C13.7578 16.0117 14.3789 16.6914 15.7852 17.1953L25.793 20.793C28.7109 21.8242 30.6211 21.5312 31.1016 19.7734L11.2734 9.25C10.5586 8.86328 10.5117 8.47655 10.5117 7.49218C10.5117 4.84374 8.40234 2.73438 5.77734 2.73438ZM5.77734 4.65624C7.35938 4.65624 8.60156 5.92187 8.60156 7.49218C8.60156 9.05077 7.35938 10.3164 5.77734 10.3164C4.24219 10.3164 2.98828 9.05077 2.98828 7.49218C2.98828 5.92187 4.24219 4.65624 5.77734 4.65624Z" fill="black" fill-opacity="0.85"/>
<path d="M5.77734 26.6288C8.98828 26.6288 11.5781 24.039 11.5781 20.8046C11.5781 20.2304 11.6133 20.078 11.8594 19.9491L32.2969 9.09759C31.9922 5.78118 29.1094 5.19524 25.4297 6.50774L15.4219 10.1054C13.6992 10.7148 12.8086 11.6757 12.3633 13.3046L12.1289 14.1718C12.082 14.4061 11.8594 14.6054 11.3086 14.8866L9.65625 15.7655C9.46875 15.871 9.375 15.9296 9.26953 15.9296C8.73047 15.9296 8.16797 15.0155 5.77734 15.0155C2.57812 15.0155 0 17.6054 0 20.8046C0 24.0272 2.57812 26.6288 5.77734 26.6288Z" fill="white"/>
<path d="M5.77734 25.5625C8.40234 25.5625 10.5117 23.4531 10.5117 20.8047C10.5117 19.832 10.5586 19.4453 11.2734 19.0586L31.1016 8.52347C30.6211 6.76565 28.7109 6.47269 25.793 7.50394L15.7852 11.1016C14.3789 11.6055 13.7461 12.2852 13.3945 13.5977L13.1602 14.4531C12.9961 15.0625 12.7148 15.3672 11.8008 15.8359L9.97266 16.7969C9.67969 16.9492 9.51562 16.9961 9.29297 16.9961C8.32031 16.9961 7.96875 16.082 5.77734 16.082C3.16406 16.082 1.06641 18.1914 1.06641 20.8047C1.06641 23.4414 3.16406 25.5625 5.77734 25.5625ZM5.77734 23.6406C4.24219 23.6406 2.98828 22.3867 2.98828 20.8047C2.98828 19.2578 4.24219 17.9922 5.77734 17.9922C7.35938 17.9922 8.60156 19.2578 8.60156 20.8047C8.60156 22.3867 7.35938 23.6406 5.77734 23.6406ZM16.0547 14.5C15.5273 14.5 15.0703 14.0664 15.0703 13.5273C15.0703 12.9648 15.5273 12.543 16.0547 12.543C16.5938 12.543 17.0508 12.9648 17.0508 13.5273C17.0508 14.0664 16.5938 14.5 16.0547 14.5Z" fill="black" fill-opacity="0.85"/>
</g>
<defs>
<clipPath id="clip0_201_83332">
<rect width="32.2969" height="25.6289" fill="white" transform="translate(0 1)"/>
</clipPath>
</defs>
</svg>
